<svg width="338" height="341" viewBox="0 0 338 341" fill="none" xmlns="http://www.w3.org/2000/svg">
<path d="M215.975 99.6577L256.565 141.345L303.498 189.545L184.559 304.593L66.2762 183.115L107.447 143.29L53.2215 87.5994L41.1713 75.2236L77.7679 39.8242L174.804 139.482L215.975 99.6577Z" fill="#69C2A7"/>
<path d="M256.565 141.345L178.797 216.568L107.447 143.29M256.565 141.345L215.975 99.6577L174.804 139.482L77.7679 39.8242L41.1713 75.2236L53.2215 87.5994L107.447 143.29M256.565 141.345L303.498 189.545L184.559 304.593L66.2762 183.115L107.447 143.29" stroke="#69C2A7"/>
<path d="M290.503 176.087L212.695 251.975L141.345 178.697L100.173 218.522L218.456 340L336.947 223.286L290.503 176.087Z" fill="white" stroke="#69C2A7"/>
<path d="M290.069 152.237L212.301 227.46L140.951 154.183L86.725 98.4915L74.6747 86.1157L111.271 50.7164L208.307 150.374L249.479 110.55L290.069 152.237Z" fill="white" stroke="#69C2A7"/>
</svg>
